<svg width="512" height="512" viewBox="0 0 512 512" fill="none" xmlns="http://www.w3.org/2000/svg">
  <rect width="512" height="512" rx="80" fill="#3B82F6"/>
  <path d="M256 96C176.5 96 112 160.5 112 240s64.5 144 144 144 144-64.5 144-144S335.5 96 256 96zm0 240c-52.9 0-96-43.1-96-96s43.1-96 96-96 96 43.1 96 96-43.1 96-96 96z" fill="white"/>
  <path d="M256 160c-44.2 0-80 35.8-80 80s35.8 80 80 80 80-35.8 80-80-35.8-80-80-80zm0 128c-26.5 0-48-21.5-48-48s21.5-48 48-48 48 21.5 48 48-21.5 48-48 48z" fill="white"/>
  <circle cx="256" cy="240" r="16" fill="white"/>
</svg> 